<svg version="1.2" xmlns="http://www.w3.org/2000/svg" viewBox="0 0 512 512" width="512" height="512">
	<title>skull-solid-svg(1)</title>
	<style>
		.s0 { fill: #504136 } 
		.s1 { fill: #83e8ba } 
		.s2 { fill: #689689 } 
	</style>
	<path fill-rule="evenodd" class="s0" d="m373.5 465.7c0 19.5-15.8 35.2-35.3 35.2h-35.2v-35.2c0-6.5-5.3-11.7-11.8-11.7-6.4 0-11.7 5.2-11.7 11.7v35.2h-47v-35.2c0-6.5-5.3-11.7-11.7-11.7-6.5 0-11.8 5.2-11.8 11.7v35.2h-35.2c-19.5 0-35.3-15.7-35.3-35.2 0-0.3 0-47.5 0-47.8-42.9-30.2-70.5-76.5-70.5-128.4 0-90.8 84.2-164.5 188-164.5 103.8 0 187.9 73.7 187.9 164.5 0 52-27.5 98.2-70.4 128.4 0 0.3 0 47.5 0 47.8zm-221.2-119.5c8.8 8.8 20.8 13.8 33.2 13.8 12.5 0 24.4-5 33.2-13.8 8.9-8.8 13.8-20.7 13.8-33.2 0-12.5-4.9-24.4-13.8-33.2-8.8-8.8-20.7-13.8-33.2-13.8-12.4 0-24.4 5-33.2 13.8-8.8 8.8-13.8 20.7-13.8 33.2 0 12.5 5 24.4 13.8 33.2zm141-66.4c-8.9 8.8-13.8 20.7-13.8 33.2 0 12.5 4.9 24.4 13.8 33.2 8.8 8.8 20.7 13.8 33.2 13.8 12.4 0 24.4-5 33.2-13.8 8.8-8.8 13.8-20.7 13.8-33.2 0-12.5-5-24.4-13.8-33.2-8.8-8.8-20.8-13.8-33.2-13.8-12.5 0-24.4 5-33.2 13.8z"/>
	<path id="Preencher com Cor Sólida 1" class="s1" d="m430.1 206.6c0 0 41.9-150.5-101.9-168.3-143.8-17.9-260.7 114-260.7 114 0 0-94.1 121.9 4.2 112.6 98.3-9.3 39.6-51.7 134.9-43.1 95.4 8.6 223.5-15.2 223.5-15.2z"/>
	<path class="s2" d="m347.2 80c0.9 0 1.9 0.2 2.7 0.6l38.6 16.4c4.5 1.9 7.9 6.3 7.8 11.7-0.1 20.3-8.4 57.5-43.7 74.4-3.4 1.6-7.4 1.6-10.8 0-35.3-16.9-43.7-54.1-43.8-74.4 0-5.4 3.3-9.8 7.8-11.7l38.6-16.4c0.9-0.4 1.8-0.6 2.8-0.6z"/>
</svg>